<svg width="17" height="20" viewBox="0 0 17 20" fill="none" xmlns="http://www.w3.org/2000/svg">
<g clip-path="url(#clip0_61385:198)">
<path d="M8.46953 0.961365C3.79271 0.961365 0 5.1106 0 10.2291C0 14.3229 2.42682 17.796 5.79388 19.0225C6.21741 19.1079 6.372 18.8217 6.372 18.576C6.372 18.3556 6.36459 17.7729 6.36035 16.9998C4.00447 17.5594 3.50682 15.7571 3.50682 15.7571C3.12247 14.6864 2.56659 14.4014 2.56659 14.4014C1.79682 13.8267 2.62376 13.8383 2.62376 13.8383C3.474 13.9041 3.92082 14.7937 3.92082 14.7937C4.67682 16.2094 5.904 15.801 6.38682 15.5633C6.46306 14.9644 6.68224 14.556 6.92471 14.3241C5.04424 14.0898 3.06635 13.2948 3.06635 9.74444C3.06635 8.73252 3.39671 7.90521 3.93882 7.25675C3.85094 7.02252 3.56082 6.07983 4.02141 4.80483C4.02141 4.80483 4.73294 4.5556 6.35082 5.75444C7.02635 5.54906 7.75059 5.44636 8.47165 5.4429C9.19059 5.44752 9.91588 5.54906 10.5925 5.7556C12.2093 4.55675 12.9198 4.80598 12.9198 4.80598C13.3814 6.08213 13.0913 7.02367 13.0045 7.2579C13.5476 7.90636 13.8748 8.73367 13.8748 9.7456C13.8748 13.3052 11.8948 14.0887 10.008 14.3183C10.3119 14.6044 10.5829 15.1698 10.5829 16.0341C10.5829 17.2733 10.5724 18.2725 10.5724 18.576C10.5724 18.8241 10.7248 19.1125 11.1547 19.0214C14.5165 17.7937 16.9412 14.3217 16.9412 10.2291C16.9412 5.1106 13.1485 0.961365 8.46953 0.961365Z" fill="#C4C4CC"/>
</g>
<defs>
<clipPath id="clip0_61385:198">
<rect width="16.9412" height="18.4615" fill="white" transform="translate(0 0.769226)"/>
</clipPath>
</defs>
</svg>
